<svg width="799" height="259" viewBox="0 0 799 259" fill="none" xmlns="http://www.w3.org/2000/svg">
<path d="M63.432 59.296C61.896 55.84 59.72 52.768 56.904 49.952C55.496 48.672 54.088 47.52 52.552 46.496C58.312 40.48 59.976 34.208 59.976 29.088C59.976 25.376 59.336 22.048 58.056 19.104C56.648 15.904 54.472 13.088 51.528 10.912C46.152 6.94399 38.472 5.02399 27.976 5.02399H21.832H6.984V100H19.528H27.976C38.728 100 47.56 97.824 54.088 93.728C57.8 91.296 60.744 88.224 62.792 84.64C64.84 80.8 65.864 76.576 65.864 71.84C65.864 67.36 65.096 63.136 63.432 59.296ZM27.976 18.336C32.968 18.336 39.88 18.976 43.464 21.664C44.872 22.688 46.536 24.48 46.536 29.088C46.536 32.16 45.256 34.848 42.568 37.408C40.008 39.968 36.296 42.144 31.56 44.064C28.232 45.472 24.776 46.496 21.832 47.136V18.336H27.976ZM46.792 82.464C42.568 85.152 36.04 86.56 27.976 86.56H21.832V60.96C25.8 60.064 31.048 58.784 36.296 56.608C37.704 56.096 38.984 55.456 40.264 54.944C43.208 56.224 45.64 57.76 47.56 59.68C50.888 62.88 52.552 66.848 52.552 71.84C52.552 76.576 50.76 79.904 46.792 82.464ZM141.754 100H158.01L116.794 0.671997L75.45 100H91.834L99.898 79.648H133.69L141.754 100ZM105.274 66.336L116.794 37.408L128.314 66.336H105.274ZM210.816 65.696C215.936 63.904 219.52 60.96 221.824 58.4C226.816 52.896 229.504 45.216 229.504 36.512C229.504 27.68 226.816 20 221.824 14.496C217.984 10.144 210.688 5.02399 198.144 5.02399H182.528H169.984V100H184.832V67.872H195.712L219.648 100H236.416L210.816 65.696ZM184.832 54.56V18.464H198.144C204.288 18.464 208.896 20.128 211.84 23.456C215.424 27.296 216.064 32.672 216.064 36.512C216.064 40.224 215.424 45.6 211.84 49.44C208.896 52.768 204.288 54.56 198.144 54.56H184.832ZM262.832 18.336H304.944V5.02399H262.704H247.984V100H262.704H304.944V86.56H262.832V57.12H297.52V43.68H262.832V18.336ZM337.332 18.336H379.572V5.02399H337.204H322.484V100H337.332V57.12H372.02V43.68H337.332V18.336ZM429.15 100C435.55 100 441.822 98.72 447.71 96.288C453.342 93.856 458.334 90.4 462.814 86.048C467.166 81.696 470.494 76.704 472.926 70.944C475.358 65.184 476.638 58.912 476.638 52.512C476.638 46.112 475.358 39.84 472.926 33.952C470.494 28.32 467.166 23.328 462.814 18.848C458.334 14.496 453.342 11.168 447.71 8.73599C441.822 6.30399 435.55 5.02399 429.15 5.02399C422.75 5.02399 416.478 6.30399 410.718 8.73599C404.958 11.168 399.966 14.496 395.614 18.848C391.262 23.328 387.806 28.32 385.374 33.952C382.942 39.84 381.662 46.112 381.662 52.512C381.662 58.912 382.942 65.184 385.374 70.944C387.806 76.704 391.262 81.696 395.614 86.048C399.966 90.4 404.958 93.856 410.718 96.288C416.478 98.72 422.75 100 429.15 100ZM429.15 19.872C437.854 19.872 446.046 23.328 452.19 29.472C458.334 35.616 461.79 43.808 461.79 52.512C461.79 61.216 458.334 69.408 452.19 75.552C446.046 81.696 437.854 85.152 429.15 85.152C420.446 85.152 412.254 81.696 406.11 75.552C399.966 69.408 396.51 61.216 396.51 52.512C396.51 43.808 399.966 35.616 406.11 29.472C412.254 23.328 420.446 19.872 429.15 19.872ZM537.775 100C544.175 100 550.447 98.72 556.335 96.288C561.967 93.856 566.959 90.4 571.439 86.048C575.791 81.696 579.119 76.704 581.551 70.944C583.983 65.184 585.263 58.912 585.263 52.512C585.263 46.112 583.983 39.84 581.551 33.952C579.119 28.32 575.791 23.328 571.439 18.848C566.959 14.496 561.967 11.168 556.335 8.73599C550.447 6.30399 544.175 5.02399 537.775 5.02399C531.375 5.02399 525.103 6.30399 519.343 8.73599C513.583 11.168 508.591 14.496 504.239 18.848C499.887 23.328 496.431 28.32 493.999 33.952C491.567 39.84 490.287 46.112 490.287 52.512C490.287 58.912 491.567 65.184 493.999 70.944C496.431 76.704 499.887 81.696 504.239 86.048C508.591 90.4 513.583 93.856 519.343 96.288C525.103 98.72 531.375 100 537.775 100ZM537.775 19.872C546.479 19.872 554.671 23.328 560.815 29.472C566.959 35.616 570.415 43.808 570.415 52.512C570.415 61.216 566.959 69.408 560.815 75.552C554.671 81.696 546.479 85.152 537.775 85.152C529.071 85.152 520.879 81.696 514.735 75.552C508.591 69.408 505.135 61.216 505.135 52.512C505.135 43.808 508.591 35.616 514.735 29.472C520.879 23.328 529.071 19.872 537.775 19.872ZM654.915 5.02399H587.715V18.336H613.827V100H628.803V18.336H654.915V5.02399ZM66.504 254H82.76L41.544 154.672L0.2 254H16.584L24.648 233.648H58.44L66.504 254ZM30.024 220.336L41.544 191.408L53.064 220.336H30.024ZM154.48 173.232C150.384 168.624 145.264 165.04 139.248 162.736C133.104 160.176 126.192 159.024 118.512 159.024H110.832H95.984V254H100.976H118.512C126.192 254 133.104 252.72 139.248 250.288C145.264 247.984 150.384 244.4 154.48 239.792C162.032 231.472 166 219.952 166 206.512C166 193.072 162.032 181.552 154.48 173.232ZM143.472 229.808C137.84 235.952 129.52 239.152 118.512 239.152H110.832V173.872H118.512C129.52 173.872 137.84 176.944 143.472 183.216C148.464 188.72 151.152 196.784 151.152 206.512C151.152 216.112 148.464 224.304 143.472 229.808ZM180.959 159.024H164.575L208.095 258.224L248.799 159.024H232.671L207.711 221.616L180.959 159.024ZM276.832 172.336H318.944V159.024H276.704H261.984V254H276.704H318.944V240.56H276.832V211.12H311.52V197.68H276.832V172.336ZM411.108 258.352V159.024H396.132V219.952L336.484 154.544V254H351.332V192.944L411.108 258.352ZM492.04 159.024H424.84V172.336H450.952V254H465.928V172.336H492.04V159.024ZM540.038 254C548.998 254 557.318 251.312 563.59 246.448C567.174 243.632 569.99 240.176 572.038 236.208C574.086 231.856 575.238 226.992 575.238 221.744V159.024H560.262V221.744C560.262 227.376 558.342 231.728 554.502 234.672C550.79 237.488 545.542 239.152 540.038 239.152C534.406 239.152 529.158 237.488 525.574 234.672C521.734 231.728 519.686 227.376 519.686 221.744V159.024H504.838V221.744C504.838 226.992 505.862 231.856 508.038 236.208C509.958 240.176 512.774 243.632 516.486 246.448C522.758 251.312 531.078 254 540.038 254ZM635.066 219.696C640.186 217.904 643.77 214.96 646.074 212.4C651.066 206.896 653.754 199.216 653.754 190.512C653.754 181.68 651.066 174 646.074 168.496C642.234 164.144 634.938 159.024 622.394 159.024H606.778H594.234V254H609.082V221.872H619.962L643.898 254H660.666L635.066 219.696ZM609.082 208.56V172.464H622.394C628.538 172.464 633.146 174.128 636.09 177.456C639.674 181.296 640.314 186.672 640.314 190.512C640.314 194.224 639.674 199.6 636.09 203.44C633.146 206.768 628.538 208.56 622.394 208.56H609.082ZM687.082 172.336H729.194V159.024H686.954H672.234V254H686.954H729.194V240.56H687.082V211.12H721.77V197.68H687.082V172.336ZM796.782 221.616C795.374 217.136 792.558 212.912 788.462 209.2C786.414 207.28 783.598 204.592 781.294 202.288L765.422 187.056C761.454 183.216 761.326 180.272 761.838 178.48C762.606 175.792 765.422 173.616 768.75 172.976C771.438 172.464 776.43 172.464 781.294 178.352L792.942 169.008C789.23 164.528 784.878 161.328 780.014 159.408C775.406 157.744 770.542 157.36 765.934 158.384C761.71 159.152 757.742 161.072 754.542 163.76C751.086 166.704 748.654 170.288 747.502 174.384C746.35 178.224 746.478 182.448 747.758 186.416C749.038 190.512 751.47 194.352 755.054 197.808L766.702 208.816C767.214 209.328 774.126 216.112 778.35 220.08C781.038 222.64 783.982 226.48 782.702 230.832C781.55 234.672 777.582 237.872 772.718 238.768C769.902 239.408 766.83 239.152 764.014 238C760.558 236.72 757.358 234.16 754.67 230.576L742.894 239.792C747.374 245.552 752.622 249.52 758.638 251.952C762.222 253.36 766.062 254 769.902 254C771.822 254 773.742 253.872 775.662 253.488C786.03 251.44 794.35 244.144 797.038 234.928C798.318 230.576 798.19 225.968 796.782 221.616Z" fill="#1F2937"/>
</svg>
