<svg width="16" height="16" viewBox="0 0 16 16" fill="none" xmlns="http://www.w3.org/2000/svg">
<path d="M5.73684 8.32306C5.73684 6.91538 6.87735 5.77393 8.28463 5.77393C9.69191 5.77393 10.833 6.91538 10.833 8.32306C10.833 9.73074 9.69191 10.8722 8.28463 10.8722C6.87735 10.8722 5.73684 9.73074 5.73684 8.32306ZM4.35923 8.32306C4.35923 10.4917 6.11663 12.2496 8.28463 12.2496C10.4526 12.2496 12.21 10.4917 12.21 8.32306C12.21 6.15443 10.4526 4.39653 8.28463 4.39653C6.11663 4.39653 4.35923 6.15443 4.35923 8.32306ZM11.4481 4.24084C11.448 4.42232 11.5017 4.59976 11.6025 4.7507C11.7032 4.90164 11.8464 5.01931 12.014 5.08883C12.1816 5.15835 12.3661 5.17659 12.544 5.14126C12.722 5.10592 12.8855 5.01859 13.0138 4.89031C13.1422 4.76203 13.2296 4.59857 13.2651 4.42058C13.3005 4.2426 13.2825 4.05809 13.2131 3.89039C13.1437 3.72269 13.0262 3.57933 12.8754 3.47844C12.7246 3.37755 12.5472 3.32366 12.3658 3.32359H12.3654C12.1222 3.3237 11.889 3.42037 11.717 3.59235C11.545 3.76433 11.4483 3.99757 11.4481 4.24084ZM5.19622 14.5474C4.4509 14.5134 4.0458 14.3892 3.77659 14.2843C3.41968 14.1453 3.16502 13.9798 2.89728 13.7123C2.62953 13.4449 2.4638 13.1904 2.32546 12.8334C2.22052 12.5642 2.09637 12.1589 2.06249 11.4133C2.02543 10.6073 2.01803 10.3652 2.01803 8.32312C2.01803 6.28106 2.02604 6.03961 2.06249 5.2329C2.09643 4.48737 2.2215 4.08282 2.32546 3.81286C2.46441 3.45585 2.6299 3.20112 2.89728 2.9333C3.16465 2.66548 3.41907 2.49969 3.77659 2.36132C4.04568 2.25634 4.4509 2.13216 5.19622 2.09827C6.00202 2.0612 6.24408 2.05379 8.28463 2.05379C10.3252 2.05379 10.5675 2.06181 11.374 2.09827C12.1193 2.13222 12.5237 2.25732 12.7936 2.36132C13.1505 2.49969 13.4052 2.66584 13.6729 2.9333C13.9406 3.20075 14.1058 3.45585 14.2447 3.81286C14.3497 4.08203 14.4738 4.48737 14.5077 5.2329C14.5447 6.03961 14.5521 6.28106 14.5521 8.32312C14.5521 10.3652 14.5447 10.6066 14.5077 11.4133C14.4737 12.1589 14.349 12.5641 14.2447 12.8334C14.1058 13.1904 13.9403 13.4451 13.6729 13.7123C13.4055 13.9795 13.1505 14.1453 12.7936 14.2843C12.5245 14.3893 12.1193 14.5135 11.374 14.5474C10.5682 14.5844 10.3261 14.5918 8.28463 14.5918C6.24316 14.5918 6.00177 14.5844 5.19622 14.5474ZM5.13292 0.722578C4.31911 0.75965 3.76301 0.888728 3.27737 1.07776C2.77441 1.27296 2.34864 1.53485 1.92317 1.95977C1.49771 2.38469 1.23657 2.81125 1.04142 3.31435C0.852442 3.80044 0.723402 4.35639 0.686341 5.17044C0.648668 5.98577 0.640045 6.24644 0.640045 8.32306C0.640045 10.3997 0.648668 10.6603 0.686341 11.4757C0.723402 12.2898 0.852442 12.8457 1.04142 13.3318C1.23657 13.8346 1.49777 14.2616 1.92317 14.6864C2.34858 15.1111 2.77441 15.3726 3.27737 15.5684C3.76393 15.7574 4.31911 15.8865 5.13292 15.9235C5.94844 15.9606 6.20861 15.9699 8.28463 15.9699C10.3607 15.9699 10.6212 15.9612 11.4363 15.9235C12.2502 15.8865 12.8059 15.7574 13.2919 15.5684C13.7945 15.3726 14.2206 15.1113 14.6461 14.6864C15.0716 14.2614 15.3321 13.8346 15.5278 13.3318C15.7168 12.8457 15.8465 12.2897 15.8829 11.4757C15.92 10.6597 15.9286 10.3997 15.9286 8.32306C15.9286 6.24644 15.92 5.98577 15.8829 5.17044C15.8459 4.35633 15.7168 3.80014 15.5278 3.31435C15.3321 2.81156 15.0709 2.38536 14.6461 1.95977C14.2213 1.53418 13.7945 1.27296 13.2925 1.07776C12.8059 0.888728 12.2502 0.759038 11.4369 0.722578C10.6219 0.685507 10.3613 0.67627 8.28524 0.67627C6.20922 0.67627 5.94844 0.684895 5.13292 0.722578Z" fill="white"/>
</svg>
