<svg width="14" height="13" viewBox="0 0 14 13" fill="none" xmlns="http://www.w3.org/2000/svg">
<path d="M3.76473 12.4765V4.22139H1.02328V12.4765H3.76501H3.76473ZM2.39458 3.09448C3.35038 3.09448 3.94543 2.46058 3.94543 1.66839C3.92753 0.858149 3.35038 0.241943 2.41276 0.241943C1.47449 0.241943 0.861694 0.858149 0.861694 1.66832C0.861694 2.46051 1.45653 3.09441 2.37662 3.09441H2.39436L2.39458 3.09448ZM5.28215 12.4765H8.02338V7.86698C8.02338 7.62058 8.04128 7.37354 8.1137 7.19755C8.31178 6.7044 8.76285 6.19392 9.52034 6.19392C10.5121 6.19392 10.909 6.95087 10.909 8.06073V12.4765H13.6502V7.74328C13.6502 5.20776 12.2979 4.02785 10.4943 4.02785C9.01561 4.02785 8.36617 4.85507 8.00535 5.41849H8.0236V4.22167H5.2823C5.31808 4.9961 5.28208 12.4768 5.28208 12.4768L5.28215 12.4765Z" fill="white"/>
</svg>
