<svg width="16" height="14" viewBox="0 0 16 14" fill="none" xmlns="http://www.w3.org/2000/svg">
<path d="M15.8647 2.44572C15.3601 2.66307 14.8296 2.81442 14.2863 2.89603C14.5403 2.85245 14.914 2.39488 15.0628 2.20967C15.2888 1.9303 15.461 1.61137 15.5708 1.2691C15.5708 1.24368 15.5962 1.20736 15.5708 1.1892C15.558 1.18221 15.5436 1.17855 15.529 1.17855C15.5145 1.17855 15.5001 1.18221 15.4873 1.1892C14.8974 1.50893 14.2696 1.75296 13.6187 1.91551C13.596 1.92245 13.5719 1.92307 13.5489 1.91731C13.5259 1.91156 13.5049 1.89963 13.4881 1.88283C13.4374 1.82245 13.3829 1.76543 13.3248 1.71215C13.0593 1.47408 12.7582 1.27923 12.4323 1.13473C11.9923 0.954088 11.5172 0.875856 11.0426 0.905942C10.5821 0.935048 10.1326 1.05866 9.7219 1.2691C9.31747 1.49096 8.96203 1.79236 8.67694 2.1552C8.37705 2.52865 8.16055 2.96204 8.04198 3.42624C7.94422 3.86778 7.93312 4.32413 8.00933 4.76991C8.00933 4.84618 8.00933 4.85707 7.94402 4.84618C5.35702 4.46486 3.23445 3.54608 1.50011 1.57415C1.42392 1.48699 1.384 1.48699 1.32232 1.57415C0.56763 2.72172 0.934091 4.53749 1.87746 5.43449C2.00445 5.55433 2.13507 5.67054 2.27294 5.77948C1.84042 5.74875 1.41845 5.63143 1.03206 5.43449C0.959489 5.38728 0.919578 5.4127 0.91595 5.49985C0.905664 5.62069 0.905664 5.74218 0.91595 5.86301C0.991657 6.4421 1.21967 6.99067 1.57667 7.45263C1.93367 7.91459 2.40684 8.27336 2.94781 8.49225C3.07969 8.54879 3.2171 8.59139 3.35781 8.61936C2.9574 8.69826 2.54673 8.71053 2.14232 8.65567C2.05524 8.63752 2.02259 8.68473 2.05524 8.76825C2.58861 10.2209 3.74604 10.6639 4.59507 10.9109C4.71118 10.929 4.82729 10.929 4.95791 10.9581C4.95791 10.9581 4.9579 10.9581 4.93613 10.9799C4.68578 11.4374 3.67348 11.7461 3.20905 11.9059C2.36136 12.2107 1.45755 12.3272 0.560374 12.2473C0.418869 12.2255 0.386214 12.2291 0.349931 12.2473C0.313647 12.2654 0.349931 12.3054 0.389842 12.3417C0.571259 12.4615 0.752675 12.5669 0.941348 12.6685C1.50303 12.9752 2.09684 13.2188 2.71197 13.3948C5.89764 14.2737 9.48243 13.6273 11.8735 11.2486C13.753 9.38198 14.4133 6.80721 14.4133 4.22881C14.4133 4.13076 14.5331 4.07265 14.602 4.02181C15.0775 3.65099 15.4967 3.21306 15.8465 2.72172C15.9071 2.64848 15.9382 2.55522 15.9336 2.46025V2.46025C15.9336 2.40577 15.9336 2.41667 15.8647 2.44572Z" fill="white"/>
</svg>
